<svg id="Layer_1" data-name="Layer 1" xmlns="http://www.w3.org/2000/svg" xmlns:xlink="http://www.w3.org/1999/xlink" viewBox="0 0 3160.49 1010.85"><defs><style>.cls-1{fill:url(#linear-gradient);}.cls-2{fill:url(#radial-gradient);}.cls-3{font-size:226.61px;}.cls-3,.cls-4{fill:#161616;font-family:Poppins-SemiBold, Poppins;font-weight:600;}.cls-4{font-size:653px;}</style><linearGradient id="linear-gradient" x1="327.36" y1="919.75" x2="327.36" y2="315.9" gradientUnits="userSpaceOnUse"><stop offset="0.29" stop-color="#0b0fd8"/><stop offset="0.6" stop-color="#0b0fd8"/><stop offset="0.64" stop-color="#1216d9"/><stop offset="0.69" stop-color="#272adb"/><stop offset="0.75" stop-color="#484bde"/><stop offset="0.83" stop-color="#7779e3"/><stop offset="0.9" stop-color="#b1b2e9"/><stop offset="0.98" stop-color="#efefef"/></linearGradient><radialGradient id="radial-gradient" cx="286.16" cy="216.79" fx="757.7317012617391" fy="86.20886395493048" r="576.57" gradientTransform="matrix(-0.17, 0.98, -1.16, -0.2, 567.28, -21.22)" gradientUnits="userSpaceOnUse"><stop offset="0.22" stop-color="#082ad9"/><stop offset="0.3" stop-color="#064ce3"/><stop offset="0.42" stop-color="#0189f5"/></radialGradient></defs><path class="cls-1" d="M480.28,549c-10.59-42.08-40.17-76.93-50.51-90.37-22.69-29.49-28.86-31.35-46.57-58.52-28.3-43.42-23.74-55.84-21.55-60,1.84-3.52,6.44-10.67,37.84-16.75,37.92-7.34,70.37-13.62,106.54,3.51,30.59,14.48,47.78,38.11,55.83,51.41,42.62,53.67,60.14,104.44,68,135.1,24.17,94.12,14.08,219.49-60.63,301-37,40.32-85.47,65.27-91.65,68.34a406.34,406.34,0,0,1-82.35,29,271.7,271.7,0,0,1-34.79,5.79,282.09,282.09,0,0,1-33.69.89c-20.13-.31-40.27.63-60.41.68-64.44.17-128.91,1.69-193.33-.18-40.29-1.17-48.36,1.17-54.36-6.12C.58,890.74,29.54,829.91,68.44,795c47.18-42.41,107.8-47.24,131.12-48.92,11.11-.8,15.39-.36,38.47,0,53,.71,97-.77,129.19-2.44,15.42-3.32,39-10.66,61.22-28.54C479.36,674.12,493.66,602.22,480.28,549Z" transform="translate(-13.15 -31.04)"/><path class="cls-2" d="M140.37,130C174.88,93.54,209.45,74.89,221,69a305.76,305.76,0,0,1,64-23.67c37.75-9.43,67.28-9.34,83.18-9.49,78.91-.75,207.47-11.2,280.69,1.38,9,1.55,26.2,5,34,18.21,5.24,8.87,3.81,18.16,1.64,34.18a140.59,140.59,0,0,1-18,51.94s-11.58,20-27.78,35.11C588.12,223.79,445,197.19,338.75,222.38c-12.31,2.91-36.34,9.54-57.84,29.09a109.65,109.65,0,0,0-32.52,109,112.52,112.52,0,0,0,27.74,49.64q47.64,57.74,95.26,115.48c11.36,13.78,17.25,33,16,55.14-.32,5.53-1.74,25.59-15.94,43.71-22.63,28.87-60.2,30.53-69,30.92-12.79.56-46.13-.37-104.77-48.35-36.78-30.09-90.09-73.71-119.8-154.67,0,0-5.19-14.19-10-37.35a379.92,379.92,0,0,1-7.94-63.34c-.56-14.26-.17-24.94-.06-27.84A321.29,321.29,0,0,1,66,272.29a338.63,338.63,0,0,1,12.72-44.2,284.13,284.13,0,0,1,25.65-51.84A308.12,308.12,0,0,1,140.37,130Z" transform="translate(-13.15 -31.04)"/><text class="cls-3" transform="translate(716.99 874.21) scale(1.01 1)">Moved with Precision</text><text class="cls-4" transform="translate(687.04 623.62) scale(1.01 1)">ShiftRix</text></svg>