<?xml version="1.0" encoding="UTF-8"?>
<svg version="1.1" xmlns="http://www.w3.org/2000/svg" width="3184" height="954">
<path d="M0 0 C119.75773488 -1.32530024 119.75773488 -1.32530024 142.90930176 18.12371826 C150.54250309 25.86823711 151.0802667 33.42963102 151.10339355 43.79217529 C150.62929907 81.90937178 133.43951612 115.72628263 107.78430176 143.02606201 C107.16297363 143.72344482 106.54164551 144.42082764 105.90148926 145.13934326 C82.46559575 170.3893122 40.6500927 173.88801489 8.47961426 176.51434326 C7.31197383 176.61026009 7.31197383 176.61026009 6.12074471 176.70811462 C-17.36987992 178.60590494 -40.92474384 179.29544314 -64.47137451 180.14068604 C-114.55510811 181.85499959 -114.55510811 181.85499959 -164.34069824 187.33856201 C-165.39597214 187.49438248 -165.39597214 187.49438248 -166.4725647 187.65335083 C-204.46036479 193.29623106 -242.07677223 204.01410283 -266.65319824 235.58856201 C-284.49694014 260.01749437 -293.03183428 289.26940267 -288.49694824 319.52215576 C-286.80655641 329.08876754 -284.25623133 338.16840312 -280.21569824 347.02606201 C-279.44419434 348.74889404 -279.44419434 348.74889404 -278.65710449 350.50653076 C-272.53510451 363.47159769 -263.72124066 373.74546545 -254.35632324 384.42059326 C-250.18357025 389.18712248 -246.19712817 394.0995076 -242.21569824 399.02606201 C-240.8211812 400.73547 -239.42530596 402.44377074 -238.02819824 404.15106201 C-237.28569824 405.05856201 -236.54319824 405.96606201 -235.77819824 406.90106201 C-231.49711147 412.12590273 -227.19925385 417.33696737 -222.90319824 422.54949951 C-220.46286807 425.51072643 -218.02550306 428.47435306 -215.59069824 431.44012451 C-210.21556842 437.98398397 -204.82802117 444.51331482 -199.34069824 450.96356201 C-195.64390115 455.30963626 -192.03696903 459.71463752 -188.49304199 464.18621826 C-186.11377615 467.15315869 -183.6998891 470.08897564 -181.27746582 473.02069092 C-178.84748296 475.96181827 -176.42513934 478.90919853 -174.00280762 481.85662842 C-172.84045728 483.26764551 -171.67524149 484.67630869 -170.50671387 486.08221436 C-153.46952688 506.59236638 -145.1642219 528.40725362 -147.60998535 555.30413818 C-150.1450973 576.97196806 -160.45677104 594.12860369 -176.92663574 608.22137451 C-196.28018818 623.47963599 -224.12045248 628.38785384 -248.13757324 625.56512451 C-264.26613397 623.04091482 -278.932303 616.71541313 -293.21569824 609.02606201 C-294.37585449 608.40989014 -295.53601074 607.79371826 -296.73132324 607.15887451 C-311.58891578 598.98380647 -325.05098092 588.66005409 -338.21569824 578.02606201 C-339.14640137 577.27840576 -340.07710449 576.53074951 -341.03601074 575.76043701 C-351.74453611 567.08122403 -362.19124612 558.10253606 -372.29382324 548.72528076 C-374.22623742 546.94012274 -376.17405647 545.17148321 -378.13757324 543.42059326 C-389.84791038 532.93395537 -400.57236888 521.44600518 -410.21569824 509.02606201 C-410.66622559 508.44807861 -411.11675293 507.87009521 -411.58093262 507.27459717 C-443.59945214 466.01174541 -463.4167272 419.72103953 -472.09069824 368.33856201 C-472.28164063 367.2082959 -472.47258301 366.07802979 -472.66931152 364.91351318 C-475.70711813 345.74062952 -476.59240039 326.72866717 -476.52819824 307.33856201 C-476.52637543 306.19375366 -476.52455261 305.04894531 -476.52267456 303.8694458 C-476.47855362 287.41161571 -476.17552959 271.26037599 -473.21569824 255.02606201 C-473.0440918 254.04540771 -472.87248535 253.06475342 -472.69567871 252.05438232 C-464.73278722 207.57889363 -447.76319786 164.07042527 -420.21569824 128.02606201 C-419.77516113 127.44421143 -419.33462402 126.86236084 -418.8807373 126.26287842 C-413.38484139 119.02928085 -407.66083588 112.13044101 -401.47741699 105.47137451 C-399.52520944 103.36069761 -397.64263546 101.21378644 -395.77819824 99.02606201 C-388.82912818 91.06799349 -381.32329359 83.87379846 -373.04772949 77.31121826 C-371.15260374 75.78204783 -369.29502273 74.20520296 -367.47741699 72.58465576 C-352.49298095 59.26736227 -335.04502019 48.15959096 -317.21569824 39.02606201 C-316.45321777 38.63257568 -315.6907373 38.23908936 -314.90515137 37.8336792 C-283.44125762 21.77633008 -249.00692474 11.84908611 -214.02819824 7.33856201 C-213.10321533 7.21900146 -212.17823242 7.09944092 -211.22521973 6.97625732 C-196.70555904 5.23071052 -182.14580606 4.90302932 -167.54003906 4.69476318 C-143.12965716 4.33306803 -118.74077536 3.49912111 -94.34441757 2.62868881 C-30.756581 0.36177236 -30.756581 0.36177236 0 0 Z " fill="#036DEC" transform="translate(536.2156982421875,30.97393798828125)"/>
<path d="M0 0 C1.81864941 1.65731761 3.6178613 3.3365152 5.38671875 5.046875 C7.70098227 7.3218261 7.70098227 7.3218261 10.32421875 9.35546875 C18.64368477 16.0191846 24.55113357 25.68406119 30.71875 34.2734375 C31.3674707 35.17618408 31.3674707 35.17618408 32.02929688 36.09716797 C34.11597774 39.00453495 36.19462751 41.91738022 38.265625 44.8359375 C39.86042322 47.08028112 41.47459998 49.30806317 43.109375 51.5234375 C87.37876973 111.80020006 109.40939369 183.98159604 111.71875 258.2734375 C111.76128906 259.58570313 111.80382812 260.89796875 111.84765625 262.25 C112.81439522 325.5391779 98.82548507 395.41178516 60.71875 447.2734375 C60.27031738 447.8926709 59.82188477 448.5119043 59.35986328 449.14990234 C53.22316222 457.60936398 46.84766296 465.61952707 39.71875 473.2734375 C38.52634878 474.64418933 37.33861117 476.01901613 36.15625 477.3984375 C30.18374979 484.23791355 23.67076898 490.44201 16.71875 496.2734375 C16.17750488 496.72847656 15.63625977 497.18351563 15.07861328 497.65234375 C-44.63173537 547.63199871 -120.17181375 577.85835893 -198.296875 578.58984375 C-200.23521622 578.61074283 -202.1735554 578.63183195 -204.1118927 578.65309143 C-209.45511001 578.70974525 -214.79837091 578.75913193 -220.14168167 578.80606842 C-223.55246145 578.83612442 -226.96322668 578.86755758 -230.37399292 578.89910889 C-274.36859032 579.29860662 -318.36355551 579.38231589 -362.35973465 579.39555091 C-367.64006715 579.39717718 -372.92039648 579.40010445 -378.20072758 579.40426248 C-443.92492445 579.45539201 -443.92492445 579.45539201 -476.40234375 578.890625 C-477.4225316 578.87547977 -478.44271946 578.86033455 -479.4938221 578.84473038 C-505.87812243 578.434017 -505.87812243 578.434017 -511.78125 574.0859375 C-517.80878261 567.30496331 -518.61157146 559.40045766 -518.484375 550.6875 C-516.26398488 513.36786605 -488.94120774 476.69670054 -462.28125 452.2734375 C-429.27753128 423.3186179 -387.21203839 410.08789637 -344.28125 405.2734375 C-343.13440231 405.13829742 -343.13440231 405.13829742 -341.96438599 405.00042725 C-334.2681423 404.18816232 -326.61281227 404.15586866 -318.88550186 404.19810104 C-316.4658882 404.21131581 -314.04632133 404.21827648 -311.62667847 404.2237854 C-308.16149797 404.23217289 -304.69633801 404.24298281 -301.23117065 404.25567627 C-292.15674526 404.28748834 -283.08228737 404.29409129 -274.0078125 404.296875 C-273.10753515 404.2971809 -272.2072578 404.2974868 -271.27969933 404.29780197 C-248.86944535 404.30098583 -226.4698091 404.04467375 -204.06915283 403.35876465 C-202.19758134 403.30148293 -200.3259564 403.24592359 -198.45428467 403.1920166 C-193.01626884 403.03464523 -187.58040337 402.85064968 -182.14480591 402.62420654 C-180.53672085 402.55909039 -178.92837049 402.50010687 -177.3197937 402.44854736 C-162.57105443 401.95549854 -148.42848767 398.79682121 -135.03125 392.4609375 C-133.92487183 391.95119385 -133.92487183 391.95119385 -132.79614258 391.43115234 C-108.59097074 380.08260941 -87.50853433 363.12558452 -73.28125 340.2734375 C-72.8992041 339.66064941 -72.5171582 339.04786133 -72.12353516 338.41650391 C-48.77053294 300.28336802 -41.34150925 253.85387734 -51.16015625 210.2734375 C-59.69471467 175.992366 -79.36032423 146.44563625 -101.28125 119.2734375 C-101.79300781 118.6355127 -102.30476563 117.99758789 -102.83203125 117.34033203 C-108.58830507 110.16774874 -114.41182635 103.06108976 -120.40625 96.0859375 C-121.15104614 95.21654541 -121.15104614 95.21654541 -121.91088867 94.32958984 C-124.21756932 91.64395181 -126.54217449 88.98425264 -128.9140625 86.35546875 C-144.14393658 69.14798415 -156.86453796 48.7660012 -166.21875 27.7734375 C-166.50177979 27.13857422 -166.78480957 26.50371094 -167.07641602 25.84960938 C-170.74081819 17.28470254 -173.24160759 8.04560151 -170.15625 -1.0390625 C-159.17017687 -16.78576732 -133.44570347 -18.2670275 -116.15625 -21.4140625 C-75.68009949 -28.53365486 -33.10131358 -28.43370224 0 0 Z " fill="#2528DA" transform="translate(531.28125,341.7265625)"/>
<path d="M0 0 C201.90618541 0 201.90618541 0 221.625 4.1875 C223.16692017 4.50787231 223.16692017 4.50787231 224.73999023 4.8347168 C241.09467694 8.3877835 256.38337661 13.85693942 271 22 C271.63631348 22.34788574 272.27262695 22.69577148 272.92822266 23.05419922 C282.56023041 28.36480657 290.91161954 34.5610713 299 42 C300.30904297 43.18529297 300.30904297 43.18529297 301.64453125 44.39453125 C323.64625416 65.28750592 337.74296061 97.11268939 339.16113281 127.4465332 C339.66114716 170.36346269 330.15528731 207.08942928 299.37890625 238.69140625 C283.29520028 253.96256244 263.7793886 263.06439749 243.05786133 270.25732422 C240.68129517 271.11501959 238.34148954 272.05118107 236 273 C236.42595459 273.69633545 236.85190918 274.3926709 237.29077148 275.11010742 C245.88279974 289.17114445 254.38258852 303.27787491 262.68856812 317.5098877 C268.26658516 327.0665351 273.92015416 336.57435515 279.62646484 346.05517578 C284.05973988 353.42360085 288.45077928 360.81567333 292.81884766 368.22290039 C297.57256861 376.28253386 302.34641039 384.33009676 307.125 392.375 C307.52382385 393.04644043 307.92264771 393.71788086 308.33355713 394.40966797 C309.96840152 397.16194787 311.60327377 399.91421121 313.23825073 402.66641235 C316.20199325 407.65562933 319.16385844 412.64595773 322.125 417.63671875 C323.38651143 419.76256727 324.64805374 421.88839746 325.90960693 424.01422119 C326.70224921 425.35004614 327.49477588 426.68593969 328.28717041 428.02191162 C329.40204444 429.90152849 330.5173571 431.78088435 331.6328125 433.66015625 C331.98739532 434.25797913 332.34197815 434.855802 332.70730591 435.47174072 C334.64359627 438.73214958 336.59192162 441.9848424 338.55371094 445.22998047 C339.1809053 446.26897743 339.1809053 446.26897743 339.82077026 447.32896423 C340.62916361 448.66685292 341.43941938 450.00361846 342.2517395 451.33912659 C345 455.88912014 345 455.88912014 345 457 C331.05742258 457.30420515 317.11536216 457.53230715 303.17014313 457.67355824 C296.69428803 457.7413604 290.22066436 457.83328492 283.74609375 457.98071289 C277.49539861 458.12214958 271.24684659 458.1997291 264.99467468 458.23340416 C262.61177315 458.25739444 260.22898693 458.30424781 257.84700012 458.37449074 C239.66893516 458.88914259 239.66893516 458.88914259 235.24626923 455.75866318 C232.06714914 452.31366627 230.58793238 448.38388774 229 444 C227.89321141 441.9810784 226.75724686 439.97754824 225.578125 438 C224.46623449 436.00139739 223.35691708 434.00136141 222.25 432 C221.02415558 429.79777722 219.79758205 427.59596014 218.5703125 425.39453125 C217.96735352 424.31252441 217.36439453 423.23051758 216.74316406 422.11572266 C214.23035934 417.62434817 211.6830745 413.15320964 209.125 408.6875 C208.64546875 407.85033447 208.1659375 407.01316895 207.671875 406.15063477 C206.66137876 404.38739158 205.65062903 402.62429365 204.63964844 400.86132812 C201.84425074 395.98311773 199.05629125 391.10065746 196.26751709 386.21865845 C194.558845 383.22763672 192.84971026 380.23687939 191.140625 377.24609375 C190.44856552 376.03499474 189.75650823 374.82389448 189.06445312 373.61279297 C188.72260986 373.01456726 188.3807666 372.41634155 188.02856445 371.79998779 C184.98242188 366.4692383 184.98242188 366.4692383 183.98190308 364.71832275 C183.3169745 363.55470284 182.65203717 362.39108793 181.98709106 361.22747803 C180.32631175 358.32120324 178.66568547 355.41484121 177.00537109 352.50830078 C173.9891511 347.22846387 170.97179938 341.9492897 167.94883728 336.67330933 C166.25681571 333.72013116 164.56572639 330.76641983 162.875 327.8125 C162.54543304 327.23681274 162.21586609 326.66112549 161.87631226 326.06799316 C156.38501575 316.47126423 150.96503265 306.83676518 145.60302734 297.16723633 C142.83386434 292.19120029 140.00608417 287.30608617 136.87182617 282.54980469 C136 281 136 281 136 279 C121.81 279 107.62 279 93 279 C93 337.74 93 396.48 93 457 C62.31 457 31.62 457 0 457 C0 306.19 0 155.38 0 0 Z M93 77 C93 120.89 93 164.78 93 210 C106.798125 210.061875 120.59625 210.12375 134.8125 210.1875 C141.28774292 210.22846802 141.28774292 210.22846802 147.89379883 210.27026367 C151.84791974 210.28031219 151.84791974 210.28031219 155.80204773 210.28633118 C157.52956987 210.29086344 159.25708405 210.30125423 160.98454285 210.31672668 C182.60945218 210.50031106 204.47093406 208.95170554 222 195 C223.051875 194.236875 224.10375 193.47375 225.1875 192.6875 C237.62992493 180.79807174 243.10163294 163.84438233 244 147 C244.04125 146.3090625 244.0825 145.618125 244.125 144.90625 C244.61931383 128.34673676 240.73215973 111.84805301 230 99 C229.36578125 98.23042969 228.7315625 97.46085937 228.078125 96.66796875 C216.24334388 83.60966702 199.08664929 78.59339926 182 77 C178.97274957 76.87363846 175.95140036 76.87293353 172.921875 76.88647461 C172.0387262 76.88635407 171.15557739 76.88623354 170.2456665 76.88610935 C167.41375119 76.8868501 164.58190339 76.89443979 161.75 76.90234375 C159.99088574 76.90381577 158.23177104 76.90483488 156.47265625 76.90539551 C149.98176411 76.91061826 143.49088138 76.92457952 137 76.9375 C122.48 76.958125 107.96 76.97875 93 77 Z " fill="#161616" transform="translate(2245,199)"/>
<path d="M0 0 C30.69 0 61.38 0 93 0 C93.33 53.79 93.66 107.58 94 163 C97.63 159.04 101.26 155.08 105 151 C107.65407445 148.64249826 110.17497771 146.47719457 113 144.375 C113.71510742 143.8392334 114.43021484 143.3034668 115.16699219 142.75146484 C148.72682698 118.31194028 192.80580348 111.55323792 233.2734375 117.59204102 C268.43032736 123.41376827 299.4485678 140.93947143 320.5 170 C338.97295458 197.72572195 348.23214019 229.7988789 348.12025452 263.092453 C348.12153615 264.52150191 348.12153615 264.52150191 348.12284368 265.97942048 C348.12447674 269.13758592 348.11901309 272.29569697 348.11352539 275.45385742 C348.11324302 277.73131306 348.11340222 280.00876878 348.1139679 282.28622437 C348.11425393 288.44447552 348.1083885 294.60270706 348.10139394 300.76095366 C348.09512816 307.20581318 348.09455405 313.65067319 348.09336853 320.09553528 C348.090617 330.90492125 348.08437755 341.7142992 348.07543945 352.52368164 C348.06624677 363.65258753 348.05917504 374.78149147 348.05493164 385.91040039 C348.05453756 386.94105942 348.05453756 386.94105942 348.05413551 387.99253985 C348.05283038 391.43988331 348.05156669 394.8872268 348.05032361 398.33457029 C348.03997329 426.88971933 348.02154705 455.44485705 348 484 C317.31 484 286.62 484 255 484 C254.96261719 468.76070312 254.92523437 453.52140625 254.88671875 437.8203125 C254.85643286 428.14973059 254.82540156 418.47916052 254.79101562 408.80859375 C254.73660875 393.46859833 254.68519228 378.12863578 254.65356445 362.78857422 C254.63051204 351.61454597 254.59703364 340.44060457 254.55129844 329.26664531 C254.52746363 323.35610684 254.50867122 317.44565387 254.50238609 311.53506851 C254.49629092 305.95856147 254.47613298 300.38227294 254.44572449 294.80584717 C254.43701473 292.77192585 254.4332068 290.73797589 254.43499184 288.70403671 C254.45105125 261.93389914 250.37144662 235.6627397 230.8515625 215.7265625 C213.43619554 199.07460888 191.63338893 195.45857363 168.47265625 195.71875 C149.82000866 196.26614978 129.10873449 203.11619894 116 217 C97.00005729 239.3363467 93.71016156 264.83200963 93.68115234 293.05029297 C93.67183702 295.14100525 93.66166601 297.23171388 93.65071106 299.32241821 C93.62357776 304.95776534 93.60831145 310.59308771 93.59528303 316.22848272 C93.57957902 322.13282939 93.55281223 328.03712603 93.5272522 333.94143677 C93.48059254 345.10406449 93.44378665 356.26670176 93.41057932 367.42937672 C93.36509356 382.52624057 93.30426778 397.62304226 93.24433136 412.71985435 C93.1504027 436.47987164 93.07686732 460.2399072 93 484 C62.31 484 31.62 484 0 484 C0 324.28 0 164.56 0 0 Z " fill="#161616" transform="translate(1146,172)"/>
<path d="M0 0 C1.41832123 0.00273422 1.41832123 0.00273422 2.86529541 0.00552368 C17.05134423 0.05152682 30.92821963 0.49288464 44.875 3.3125 C45.75124023 3.48410645 46.62748047 3.65571289 47.53027344 3.83251953 C78.12294828 9.99622193 105.09075854 22.84571468 127.875 44.3125 C128.88820313 45.22902344 128.88820313 45.22902344 129.921875 46.1640625 C153.40552291 68.23869153 162.9272264 100.14812235 164.875 131.3125 C131.215 131.3125 97.555 131.3125 62.875 131.3125 C60.895 122.8975 60.895 122.8975 58.875 114.3125 C52.20961804 99.58665613 41.12120525 88.68086391 26.05078125 82.7109375 C5.67568054 75.41898426 -18.43626261 74.83729746 -38.25 83.9375 C-49.72546401 90.03571778 -57.57237631 98.75686737 -61.9375 111 C-65.67092249 123.64971384 -65.52610115 137.19816579 -60.125 149.3125 C-42.06140737 181.02784005 5.83492123 189.22824115 38.02734375 199.140625 C109.270012 221.10640527 109.270012 221.10640527 132.8125 243.37109375 C134.97228338 245.46591461 134.97228338 245.46591461 137.9375 247.6875 C142.49385409 251.75913557 146.13999765 256.49166509 149.875 261.3125 C150.80892578 262.50552734 150.80892578 262.50552734 151.76171875 263.72265625 C166.12110512 283.05135836 170.31794682 306.27775984 170.25 329.875 C170.24912384 330.62161896 170.24824768 331.36823792 170.24734497 332.13748169 C170.20067389 344.22722905 169.41009591 355.69210936 165.875 367.3125 C165.63894043 368.09544434 165.40288086 368.87838867 165.15966797 369.68505859 C159.12122377 388.98394182 149.26731707 405.2541095 135.875 420.3125 C135.16601562 421.11171875 134.45703125 421.9109375 133.7265625 422.734375 C102.26050613 455.92641758 55.33523222 466.88587301 11.390625 468.5 C-38.3400058 469.64446615 -89.95630161 456.14064961 -126.57714844 421.26318359 C-145.20770055 402.99188438 -157.46442875 379.77791526 -162 354.0625 C-162.18054932 353.05521851 -162.18054932 353.05521851 -162.36474609 352.02758789 C-163.44874541 344.99503731 -163.125 338.64672976 -163.125 331.3125 C-130.455 331.3125 -97.785 331.3125 -64.125 331.3125 C-63.465 334.2825 -62.805 337.2525 -62.125 340.3125 C-57.68095836 358.69467223 -49.27412535 372.58763247 -32.96484375 382.64453125 C-14.2491103 392.98661434 10.72869051 393.70476777 31.09375 388.2734375 C47.43717373 383.38058686 59.69926522 375.4396844 67.875 360.3125 C73.82543732 347.6002021 74.86962903 333.57586627 70.90234375 320.046875 C65.05904911 304.49437975 51.54226565 293.75021886 36.83886719 286.89746094 C28.26366334 283.1284328 19.52197319 279.98447912 10.625 277.0625 C9.92279327 276.82950195 9.22058655 276.59650391 8.49710083 276.35644531 C-2.33064884 272.76622255 -13.22763361 269.47293951 -24.1875 266.3125 C-47.96881969 259.44516887 -71.71533773 251.9245841 -94.125 241.3125 C-94.88296875 240.95478516 -95.6409375 240.59707031 -96.421875 240.22851562 C-122.68632701 227.61705031 -145.03719387 206.25237787 -155.4921875 178.7109375 C-166.51399001 147.18793966 -165.68106547 108.43441257 -151.32568359 78.04467773 C-144.97973711 65.23809899 -137.0015802 54.55379882 -127.125 44.3125 C-126.46886719 43.59320313 -125.81273437 42.87390625 -125.13671875 42.1328125 C-94.18646943 9.12804985 -43.18675561 -0.17311127 0 0 Z " fill="#161616" transform="translate(897.125,192.6875)"/>
<path d="M0 0 C13.55168727 -0.25508799 27.10280183 -0.45042993 40.65640259 -0.56993389 C46.95034695 -0.62729705 53.24264675 -0.70507145 59.53564453 -0.82983398 C65.61121722 -0.94952942 71.68521045 -1.01516131 77.76187134 -1.04364967 C80.07769642 -1.06394498 82.39343681 -1.10358067 84.70858765 -1.16303062 C102.7838962 -1.60863725 102.7838962 -1.60863725 108.02949524 2.19906616 C110.13805917 5.04045596 111.56574199 7.77272941 113 11 C114.00691756 12.5548549 115.04248843 14.09165026 116.11010742 15.60546875 C117.11119784 17.13108562 118.10956981 18.65848915 119.10546875 20.1875 C120.25167354 21.93557012 121.3979154 23.68361593 122.54418945 25.43164062 C123.13769196 26.33889893 123.73119446 27.24615723 124.34268188 28.1809082 C138.21261431 49.37574166 152.32447195 70.40156678 166.5243988 91.3762207 C170.71210412 97.56489061 174.86973017 103.77284807 179 110 C185.55560479 99.69939056 191.84638028 89.25739362 198.0625 78.75 C204.81712539 67.3323648 211.64149124 55.96258814 218.55126953 44.63818359 C222.48036495 38.18634113 226.36895547 31.71276576 230.21484375 25.2109375 C230.65144318 24.47313049 231.0880426 23.73532349 231.53787231 22.97515869 C233.67447525 19.36248461 235.80674597 15.74733153 237.93359375 12.12890625 C238.70435953 10.8228768 239.47518953 9.51688524 240.24609375 8.2109375 C240.59735825 7.61026459 240.94862274 7.00959167 241.31053162 6.39071655 C242.72794507 3.99429338 244.02160908 1.97839092 246 0 C247.79221535 -0.24609566 247.79221535 -0.24609566 249.99893188 -0.24050903 C251.25255775 -0.24463303 251.25255775 -0.24463303 252.5315094 -0.24884033 C253.45004196 -0.24164978 254.36857452 -0.23445923 255.31494141 -0.22705078 C256.28083694 -0.22734283 257.24673248 -0.22763489 258.24189758 -0.22793579 C261.44520955 -0.22653872 264.648291 -0.21095974 267.8515625 -0.1953125 C270.06830722 -0.19158371 272.28505358 -0.18873611 274.50180054 -0.18673706 C280.34456916 -0.17909004 286.18723882 -0.15943237 292.02996826 -0.1373291 C297.98871522 -0.11689368 303.94747812 -0.10774028 309.90625 -0.09765625 C321.60421022 -0.07618749 333.30209689 -0.04203867 345 0 C344.29508876 3.04627908 343.41576888 5.19430462 341.68457031 7.81079102 C341.19653931 8.55425278 340.7085083 9.29771454 340.20568848 10.06370544 C339.66859253 10.86897171 339.13149658 11.67423798 338.578125 12.50390625 C337.73284241 13.78522179 337.73284241 13.78522179 336.8704834 15.09242249 C335.00277496 17.91965773 333.12657147 20.74114128 331.25 23.5625 C329.94143783 25.53870513 328.6331738 27.51510772 327.32519531 29.49169922 C316.98704753 45.09367545 306.52291661 60.61016482 296.03808594 76.11376953 C288.47244578 87.304883 281.0019404 98.54814909 273.640625 109.875 C267.85436364 118.77530265 262.01689004 127.64194465 256.1784668 136.50808716 C254.91815027 138.42255487 253.65851795 140.33747323 252.3996582 142.25289917 C251.19764565 144.08177317 249.99477298 145.91008218 248.79101562 147.73780823 C247.61464567 149.52402984 246.4401418 151.31148192 245.26757812 153.10020447 C242.30744942 157.59497178 239.28815147 162.02875073 236.14648438 166.39892578 C235.53158142 167.26332779 234.91667847 168.1277298 234.28314209 169.01832581 C233.11150716 170.65767449 231.92484597 172.2864199 230.72125244 173.90245056 C227.71887452 177.83210927 227.71887452 177.83210927 227.31225586 182.50732422 C227.86921143 183.32990723 228.42616699 184.15249023 229 185 C229.37184418 185.58770676 229.74368835 186.17541351 230.12680054 186.78092957 C231.54737223 189.00177762 233.02773057 191.17403966 234.51953125 193.34765625 C235.08109421 194.17470566 235.64265717 195.00175507 236.22123718 195.85386658 C237.44033828 197.64891374 238.66143117 199.44260943 239.88427734 201.23510742 C243.20093741 206.09839436 246.50113275 210.97281729 249.80078125 215.84765625 C250.82493637 217.36016464 250.82493637 217.36016464 251.86978149 218.90322876 C258.83732159 229.209354 265.67551102 239.59883999 272.5 250 C282.06520664 264.5699238 291.72963536 279.06687094 301.5 293.5 C311.8219937 308.7517642 322.04696142 324.06444352 332.1875 339.4375 C332.82381348 340.40059082 333.46012695 341.36368164 334.11572266 342.35595703 C335.90654977 345.06764752 337.69413467 347.78144195 339.48046875 350.49609375 C340.01234299 351.30126938 340.54421722 352.10644501 341.09220886 352.9360199 C341.82423271 354.0513485 341.82423271 354.0513485 342.57104492 355.18920898 C342.99431564 355.832285 343.41758636 356.47536102 343.85368347 357.13792419 C345.0267597 359.04346844 346.01129522 360.99393129 347 363 C333.68759204 364.02938947 320.38487202 364.80566299 307.04050159 365.27973557 C300.8378111 365.50764198 294.66263237 365.8144765 288.47583008 366.31933594 C249.80003632 369.39185613 249.80003632 369.39185613 238.42308044 361.1282692 C227.61224259 351.09144382 220.9888453 337.3618172 214.63131714 324.26580811 C211.45526735 317.76277597 207.57718211 311.97965796 203.3515625 306.10546875 C202.19505796 304.4087901 201.04337557 302.70881157 199.8972168 301.00512695 C199.36059418 300.21514313 198.82397156 299.4251593 198.27108765 298.61123657 C188.01683728 283.51264709 177.85588127 268.36257606 168 253 C165.10918519 256.46627904 162.71543533 259.97973965 160.453125 263.8828125 C160.12501831 264.44591629 159.79691162 265.00902008 159.4588623 265.58918762 C158.75349532 266.80069778 158.04993346 268.01326041 157.34802246 269.22677612 C155.84578617 271.82379112 154.33468203 274.41560706 152.82403564 277.00773621 C152.04198431 278.34977807 151.26037193 279.69207581 150.47918701 281.03462219 C146.60491453 287.69007389 142.68201726 294.31601363 138.75 300.9375 C137.4218325 303.17575603 136.09370678 305.41403686 134.765625 307.65234375 C133.81333008 309.25698486 133.81333008 309.25698486 132.84179688 310.89404297 C130.61402847 314.65089207 128.38699651 318.40808479 126.17938232 322.17681885 C125.12787674 323.94448705 124.05514388 325.69988767 122.95184326 327.43569946 C119.79619179 332.48796024 117.49042815 337.24505745 115.65820312 342.92114258 C112.76574257 350.73752471 109.44028228 358.5654481 102 363 C87.44958751 368.11551112 69.64107063 365.63771437 54.54516602 364.85394287 C48.62124044 364.57581903 42.69422034 364.45403881 36.765625 364.31835938 C25.16890056 364.03025356 13.58602086 363.57066463 2 363 C3.33829614 359.55979131 4.77281549 356.58353251 6.80859375 353.5 C7.66638428 352.19301147 7.66638428 352.19301147 8.54150391 350.85961914 C9.16718262 349.91594482 9.79286133 348.97227051 10.4375 348 C11.09927246 346.99380615 11.76104492 345.9876123 12.44287109 344.95092773 C13.87772007 342.76940555 15.31431194 340.58902894 16.75244141 338.40966797 C19.00292454 334.99826114 21.24297622 331.58009349 23.48046875 328.16015625 C24.24682485 326.98893143 25.01318228 325.81770748 25.77954102 324.64648438 C26.16441681 324.05826904 26.5492926 323.47005371 26.9458313 322.86401367 C34.56271023 311.22707698 42.19752448 299.60187065 49.8293457 287.97473145 C56.09865662 278.42333318 62.36432252 268.86955957 68.625 259.3125 C69.01399475 258.71869537 69.4029895 258.12489075 69.80377197 257.51309204 C72.53602673 253.34217844 75.26804262 249.17110839 78 245 C78.77799279 243.81217317 79.55598759 242.62434765 80.33398438 241.43652344 C80.71937378 240.84811676 81.10476318 240.25971008 81.50183105 239.6534729 C82.28343075 238.46021847 83.06508788 237.26700166 83.84680176 236.07382202 C85.79732281 233.09659112 87.74712336 230.11889414 89.6953125 227.14013672 C93.56115408 221.23181732 97.43841366 215.33150098 101.34054565 209.44706726 C103.29635866 206.49681692 105.24805198 203.54385176 107.19952393 200.59072876 C108.14337142 199.16501591 109.08926767 197.74065708 110.03729248 196.31771851 C111.35551819 194.33885781 112.66671923 192.35550918 113.9765625 190.37109375 C114.37039124 189.78390564 114.76421997 189.19671753 115.16998291 188.59173584 C117.02565027 185.76579848 118.57167234 183.37573734 119 180 C118.24979652 178.05797759 118.24979652 178.05797759 116.91162109 176.18920898 C116.4233786 175.44565659 115.93513611 174.70210419 115.43209839 173.9360199 C114.8847403 173.13084427 114.3373822 172.32566864 113.7734375 171.49609375 C113.2076297 170.64269913 112.6418219 169.7893045 112.05886841 168.91004944 C110.17631944 166.07760954 108.27581906 163.25770492 106.375 160.4375 C105.04780759 158.44859729 103.72165059 156.4590033 102.39648438 154.46875 C98.28260201 148.30015037 94.14401569 142.14838346 90 136 C89.36984985 135.06440247 88.73969971 134.12880493 88.0904541 133.16485596 C82.69574138 125.15584827 77.29471144 117.15112765 71.88232422 109.15405273 C62.71552497 95.60060332 53.69095595 81.95756526 44.71368408 68.27801514 C37.81637412 57.77054033 30.87610759 47.29525431 23.8359375 36.8828125 C22.83068024 35.39596954 22.83068024 35.39596954 21.80511475 33.87908936 C18.57649756 29.10761924 15.34161892 24.34050469 12.09960938 19.578125 C10.93878294 17.86720049 9.77797467 16.15626365 8.6171875 14.4453125 C8.09047455 13.67551056 7.5637616 12.90570862 7.02108765 12.11257935 C6.53314728 11.39238617 6.04520691 10.67219299 5.54248047 9.93017578 C5.12143036 9.31232208 4.70038025 8.69446838 4.26657104 8.05789185 C2.6645264 5.45493118 1.33731165 2.74659377 0 0 Z " fill="#161616" transform="translate(2809,293)"/>
<path d="M0 0 C0 25.74 0 51.48 0 78 C-5.94 78.33 -11.88 78.66 -18 79 C-29.66267538 80.7586574 -42.37600422 83.09593239 -49.83203125 93.17578125 C-50.21746094 93.77777344 -50.60289062 94.37976563 -51 95 C-51.56267578 95.85658203 -51.56267578 95.85658203 -52.13671875 96.73046875 C-60.30520593 110.9721806 -58.45420871 129.71784374 -59 145 C-38.21 145 -17.42 145 4 145 C4 170.08 4 195.16 4 221 C-16.79 221 -37.58 221 -59 221 C-59 315.71 -59 410.42 -59 508 C-90.35 508 -121.7 508 -154 508 C-154 413.29 -154 318.58 -154 221 C-167.53 221 -181.06 221 -195 221 C-195 195.92 -195 170.84 -195 145 C-181.47 145 -167.94 145 -154 145 C-154.061875 138.4103125 -154.061875 138.4103125 -154.125 131.6875 C-154.20743943 99.58272017 -149.55347738 66.31007475 -128 41 C-127.41863281 40.27425781 -126.83726563 39.54851562 -126.23828125 38.80078125 C-107.61413143 16.42837486 -78.73564914 6.85738164 -51 2 C-49.7521875 1.773125 -48.504375 1.54625 -47.21875 1.3125 C-31.49390896 -1.02673255 -16.02029879 0 0 0 Z " fill="#161616" transform="translate(1927,148)"/>
<path d="M0 0 C30.69 0 61.38 0 93 0 C93 29.37 93 58.74 93 89 C120.06 89 147.12 89 175 89 C175 114.08 175 139.16 175 165 C147.94 165 120.88 165 93 165 C93.11976393 196.34379667 93.11976393 196.34379667 93.2578125 227.6875 C93.31818524 240.47329063 93.37656172 253.25906782 93.421875 266.04492188 C93.45488883 275.35767975 93.49477154 284.670379 93.54279006 293.98307204 C93.56796191 298.91083361 93.58977037 303.83855675 93.60334396 308.76636505 C93.61624926 313.41206227 93.63839352 318.05762707 93.66738319 322.70325089 C93.67639319 324.40105627 93.68213367 326.09888295 93.68421364 327.79671097 C93.31389077 348.29971947 93.31389077 348.29971947 102.625 365.75 C112.25692927 372.96785079 123.55486755 373.14203631 135.05859375 373.31640625 C136.58135925 373.34438293 136.58135925 373.34438293 138.1348877 373.3729248 C141.90234238 373.44087151 145.66993061 373.50124336 149.4375 373.5625 C157.873125 373.706875 166.30875 373.85125 175 374 C175 399.74 175 425.48 175 452 C157.2109375 452.061875 157.2109375 452.061875 139.0625 452.125 C135.35394775 452.14320801 131.64539551 452.16141602 127.82446289 452.18017578 C123.20397949 452.18920898 123.20397949 452.18920898 121.0231781 452.19088745 C119.53891287 452.19390647 118.05465171 452.200828 116.57041931 452.21115112 C84.79898002 452.42057433 51.17516937 446.4892189 27.48828125 423.64453125 C5.27463488 400.03599342 -0.5404227 369.50331125 -0.34057617 338.1262207 C-0.33972719 336.22196466 -0.34021032 334.31770763 -0.34190369 332.41345215 C-0.34275449 327.30927918 -0.32527931 322.20532341 -0.30418181 317.10120034 C-0.28526014 311.74278672 -0.28365249 306.38436656 -0.28010559 301.02592468 C-0.27083018 290.90816825 -0.24627822 280.79051058 -0.21605712 270.67279738 C-0.1823718 259.14175579 -0.16599178 247.61070915 -0.15097082 236.07963049 C-0.11972398 212.38635318 -0.06476913 188.69321103 0 165 C-14.52 165 -29.04 165 -44 165 C-44 139.92 -44 114.84 -44 89 C-29.48 89 -14.96 89 0 89 C0 59.63 0 30.26 0 0 Z " fill="#161616" transform="translate(2005,204)"/>
<path d="M0 0 C30.69 0 61.38 0 93 0 C93 119.79 93 239.58 93 363 C62.31 363 31.62 363 0 363 C0 243.21 0 123.42 0 0 Z " fill="#161616" transform="translate(2667,293)"/>
<path d="M0 0 C30.69 0 61.38 0 93 0 C93 119.79 93 239.58 93 363 C62.31 363 31.62 363 0 363 C0 243.21 0 123.42 0 0 Z " fill="#161616" transform="translate(1581,293)"/>
<path d="M0 0 C12.21 0 24.42 0 37 0 C41.21296092 9.02777339 45.37155032 18.00964642 49.265625 27.16796875 C49.73756287 28.27195511 50.20950073 29.37594147 50.69573975 30.51338196 C51.69926296 32.86149529 52.701706 35.21007052 53.703125 37.55908203 C56.07588547 43.12473325 58.4551361 48.68760639 60.8341217 54.25059891 C61.64087652 56.13730697 62.44734207 58.02413849 63.25378418 59.91098022 C68.47315998 72.11999939 73.73116343 84.31225455 79 96.5 C79.41254028 97.45450043 79.82508057 98.40900085 80.25012207 99.39242554 C82.49898424 104.59542539 84.74890311 109.79796663 87 115 C92.8116851 104.00163552 97.57344408 92.5631675 102.4375 81.125 C103.34628874 78.99539196 104.25539346 76.86591873 105.16479492 74.73657227 C107.59848253 69.03534361 110.02741832 63.33210254 112.4552002 57.62835693 C114.04433906 53.89585839 115.63469513 50.16388094 117.22558594 46.43212891 C117.49525775 45.7995517 117.76492956 45.16697449 118.04277325 44.51522827 C118.58788783 43.23654364 119.13300393 41.95785966 119.67812157 40.67917633 C125.45753207 27.12176977 131.22997228 13.56140273 137 0 C149.54 0 162.08 0 175 0 C175 52.8 175 105.6 175 160 C164.11 160 153.22 160 142 160 C141.67 127.66 141.34 95.32 141 62 C128.48880362 91.98965919 128.48880362 91.98965919 116.02734375 122 C115.64038834 122.93449478 115.25343292 123.86898956 114.85475159 124.83180237 C113.02917455 129.24126183 111.2050693 133.65132242 109.38305664 138.06225586 C108.72415435 139.65479891 108.06522056 141.24732894 107.40625 142.83984375 C107.11850204 143.53791138 106.83075409 144.235979 106.5342865 144.9552002 C104.43946974 150.01346378 102.22566499 154.99225378 100 160 C91.75 160 83.5 160 75 160 C72.30584235 154.61168471 69.79564161 149.31752136 67.5234375 143.76171875 C67.03873238 142.5875515 67.03873238 142.5875515 66.54423523 141.3896637 C65.8479783 139.70231377 65.15302408 138.01442581 64.45925903 136.3260498 C62.58953996 131.77607904 60.71018873 127.2300862 58.83203125 122.68359375 C58.44137985 121.73723053 58.05072845 120.79086731 57.64823914 119.81582642 C52.76647391 107.99795235 47.81928076 96.20749032 42.8739624 84.41610718 C42.11529327 82.60712514 41.35674843 80.79809098 40.5983429 78.98899841 C39.91157142 77.35093653 39.2244141 75.71303635 38.53678894 74.07533264 C38.23082291 73.34567795 37.92485687 72.61602325 37.60961914 71.86425781 C37.34556778 71.23513489 37.08151642 70.60601196 36.8094635 69.95782471 C35.85379811 67.64638594 34.92892563 65.32231408 34 63 C33.67 95.01 33.34 127.02 33 160 C22.11 160 11.22 160 0 160 C0 107.2 0 54.4 0 0 Z " fill="#161616" transform="translate(746,747)"/>
<path d="M0 0 C10.89 0 21.78 0 33 0 C34.96316954 5.88950862 36.71842123 11.53623392 38.0847168 17.54907227 C38.27047272 18.35017929 38.45622864 19.15128632 38.64761353 19.97666931 C39.25227516 22.58898173 39.85079938 25.20265751 40.44921875 27.81640625 C40.87053502 29.64209128 41.29223812 31.46768707 41.71430969 33.29319763 C42.81795159 38.07127202 43.91637217 42.85053164 45.01367188 47.63006592 C46.13679379 52.51778264 47.26490193 57.40434804 48.39257812 62.29101562 C50.59990535 71.85956328 52.80171262 81.42937179 55 91 C58.09041027 80.03788849 61.0600009 69.05612483 63.83161163 58.00907898 C64.40985545 55.70461113 64.99095803 53.40087896 65.57269287 51.09729004 C67.01106508 45.39930615 68.44493044 39.70019059 69.87866211 34.0010376 C71.10386828 29.13142456 72.33091674 24.26228339 73.56053925 19.39378357 C74.13241341 17.12630886 74.70153783 14.85815541 75.27056885 12.58996582 C75.61806576 11.21293692 75.96569425 9.83594122 76.31347656 8.45898438 C76.61594299 7.25640991 76.91840942 6.05383545 77.2300415 4.81481934 C78 2 78 2 79 0 C90.55 0 102.1 0 114 0 C114.6612085 2.6500708 115.32241699 5.3001416 116.00366211 8.03051758 C118.18587205 16.77591015 120.36937535 25.52097941 122.55351925 34.26588917 C123.87801913 39.56911237 125.20208004 44.87244437 126.52514648 50.17602539 C127.80144283 55.29205784 129.07888081 60.40780396 130.35711861 65.52335167 C130.845148 67.4773202 131.33276248 69.43139241 131.81995964 71.38556862 C132.50119697 74.11775243 133.18389439 76.84956745 133.86694336 79.58129883 C134.06906433 80.39337799 134.2711853 81.20545715 134.47943115 82.04214478 C135.23668195 85.06556595 136.01394517 88.0418355 137 91 C137.26086899 89.87469376 137.52173798 88.74938751 137.79051208 87.58998108 C140.24401291 77.00850095 142.70130914 66.42790858 145.16236782 55.84818363 C146.42763506 50.40842981 147.69154168 44.96836719 148.95239258 39.52758789 C150.1681992 34.28140571 151.38750947 29.03604941 152.60930061 23.79125786 C153.07586807 21.78559085 153.5411512 19.77962464 154.00515556 17.77336311 C154.65299893 14.97319786 155.30531438 12.17411111 155.95874023 9.37524414 C156.15151047 8.53727295 156.3442807 7.69930176 156.54289246 6.8359375 C157.88594784 1.11405216 157.88594784 1.11405216 159 0 C161.29151417 -0.08790975 163.58572524 -0.10694038 165.87890625 -0.09765625 C166.90889992 -0.09553383 166.90889992 -0.09553383 167.95970154 -0.09336853 C170.16067801 -0.08775479 172.36155409 -0.07520007 174.5625 -0.0625 C176.05143083 -0.05748676 177.54036324 -0.05292355 179.02929688 -0.04882812 C182.68623075 -0.03778093 186.34310558 -0.02050713 190 0 C189.35820416 5.47169812 188.1070473 10.53784052 186.53491211 15.81152344 C186.15894897 17.0939946 186.15894897 17.0939946 185.77539062 18.40237427 C184.94732431 21.22275553 184.11237672 24.04104927 183.27734375 26.859375 C182.69217406 28.84722828 182.10742929 30.83520669 181.52308655 32.82330322 C179.98019231 38.06833555 178.43143488 43.31161898 176.88146973 48.55456543 C175.33470379 53.79052713 173.79357649 59.02814736 172.25195312 64.265625 C169.62038565 73.20355648 166.98222022 82.13952026 164.34029198 91.07439423 C162.8844152 96.00001122 161.43299855 100.92688441 159.9895277 105.85615158 C159.40605635 107.84841626 158.82137045 109.84031983 158.23622131 111.83209229 C157.56249913 114.1267208 156.89112747 116.4220414 156.22264099 118.71820068 C155.93719925 119.68807922 155.65175751 120.65795776 155.35766602 121.65722656 C154.99584984 122.89499847 154.99584984 122.89499847 154.62672424 124.15777588 C154 126 154 126 153 127 C150.40640678 127.08851529 147.83960309 127.11525945 145.24609375 127.09765625 C144.47064713 127.0962413 143.6952005 127.09482635 142.89625549 127.09336853 C140.40996506 127.08775345 137.9237634 127.07519846 135.4375 127.0625 C133.75586067 127.05748694 132.07421994 127.0529237 130.39257812 127.04882812 C126.26168434 127.03777913 122.13085724 127.02050445 118 127 C114.45871145 114.92962095 111.12150292 102.81299571 107.94921875 90.640625 C107.77585117 89.97579605 107.6024836 89.3109671 107.42386246 88.62599182 C105.99033545 83.1257175 104.56201431 77.62409433 103.13592529 72.12188721 C102.05909294 67.96720492 100.97964192 63.81322362 99.89615822 59.66027069 C99.39438101 57.7325616 98.89658402 55.8038179 98.39884949 53.87506104 C98.09795914 52.72165222 97.79706879 51.56824341 97.48706055 50.37988281 C97.22314011 49.36178528 96.95921967 48.34368774 96.68730164 47.29473877 C96.21467976 45.05651507 96.21467976 45.05651507 95 44 C94.73913101 44.99558426 94.47826202 45.99116852 94.20948792 47.016922 C91.75324184 56.39044652 89.2959511 65.76369663 86.83763218 75.13667774 C85.5737631 79.95564513 84.31026479 84.77470911 83.04760742 89.59399414 C81.82950694 94.24316015 80.61044088 98.89207198 79.39069939 103.54080772 C78.92506306 105.31615837 78.45977722 107.09160098 77.99484444 108.867136 C77.34457172 111.35022488 76.69306385 113.83298656 76.04125977 116.31567383 C75.84848953 117.05294708 75.6557193 117.79022034 75.45710754 118.54983521 C74.70826567 121.39788644 73.93157853 124.20526442 73 127 C61.12 127 49.24 127 37 127 C30.65864478 106.74093781 24.53763325 86.43362053 18.5770874 66.06030273 C17.29822518 61.69076528 16.01645284 57.32208075 14.73481178 52.9533577 C13.69081675 49.39457241 12.64751222 45.835589 11.60604858 42.27606201 C9.62343005 35.50378192 7.62688261 28.73615868 5.59814453 21.97753906 C5.2232338 20.72522491 4.84832306 19.47291077 4.46205139 18.18264771 C3.75776675 15.83382841 3.05013366 13.48600964 2.33860779 11.13937378 C1.87431114 9.58949265 1.87431114 9.58949265 1.40063477 8.00830078 C1.12872818 7.10846466 0.85682159 6.20862854 0.57667542 5.28152466 C0 3 0 3 0 0 Z " fill="#161616" transform="translate(1569,780)"/>
<path d="M0 0 C11.22 0 22.44 0 34 0 C34 55.77 34 111.54 34 169 C22.78 169 11.56 169 0 169 C-0.495 161.575 -0.495 161.575 -1 154 C-2.381875 155.36125 -3.76375 156.7225 -5.1875 158.125 C-15.89482162 167.71477324 -29.06412683 171.65210977 -43.3203125 171.2421875 C-58.9366866 169.83079509 -73.52572897 163.9579789 -84 152 C-89.8590004 144.42118194 -94.47615985 136.28661625 -97 127 C-97.22300781 126.22398437 -97.44601562 125.44796875 -97.67578125 124.6484375 C-102.31848604 104.75113124 -99.31829563 83.34151943 -89.12353516 65.78759766 C-80.92506462 52.74344267 -68.39334567 44.71162553 -53.75 40.6875 C-38.18641106 37.7499079 -22.39493938 40.51420071 -9 49 C-6.36 51.31 -3.72 53.62 -1 56 C-0.67 37.52 -0.34 19.04 0 0 Z M-59 82 C-65.68925393 92.14508333 -66.86298531 102.84621994 -64.828125 114.6640625 C-62.45322138 124.23089122 -57.51767212 131.96807624 -49.125 137.25 C-40.84863809 141.92687907 -33.25427771 143.27966011 -24.0625 140.875 C-14.13375059 137.59591993 -7.60905194 131.7908641 -2.74609375 122.640625 C1.6147911 112.61210932 1.78037413 99.4340671 -1.9609375 89.13671875 C-6.05623234 80.71519139 -12.52409423 74.18496272 -21.1875 70.625 C-35.51849813 65.98504569 -49.79443784 69.84694925 -59 82 Z " fill="#161616" transform="translate(1465,738)"/>
<path d="M0 0 C10.89 0 21.78 0 33 0 C33.33 17.82 33.66 35.64 34 54 C36.97 51.69 39.94 49.38 43 47 C56.46548336 38.78377286 72.60266536 38.44048625 87.59765625 41.953125 C99.82691121 45.71597268 108.48528869 53.14214782 115 64 C121.39525263 76.77070571 121.27655159 89.62753055 121.1953125 103.5703125 C121.19157659 105.4617396 121.18873235 107.35316865 121.18673706 109.24459839 C121.17914606 114.19292663 121.1595371 119.14113516 121.1373291 124.0894165 C121.1167724 129.15074037 121.10771444 134.21208381 121.09765625 139.2734375 C121.07628643 149.18235239 121.04114183 159.09114745 121 169 C110.11 169 99.22 169 88 169 C87.9906543 166.69475342 87.98130859 164.38950684 87.97167969 162.0144043 C87.93777857 154.36281719 87.88215734 146.71149607 87.81609726 139.06012249 C87.77673655 134.42507789 87.74449249 129.79022002 87.72900391 125.1550293 C87.7137617 120.67438703 87.67918369 116.19425855 87.63169098 111.71384621 C87.61695468 110.01204733 87.60896348 108.31017507 87.60811615 106.60831261 C87.59738273 95.85127209 87.38731705 85.63219649 80.75 76.5625 C74.3104018 70.56196532 67.12152803 68.64502449 58.46484375 68.7890625 C51.5210462 69.38330191 45.57083175 71.42858837 40.46875 76.25390625 C35.05231452 82.69312609 33.8597199 89.52047198 33.79467773 97.70605469 C33.78477814 98.47717087 33.77487854 99.24828705 33.76467896 100.04277039 C33.73314922 102.58577427 33.70834032 105.12879682 33.68359375 107.671875 C33.66301686 109.43736246 33.64202019 111.20284507 33.62062073 112.96832275 C33.56547601 117.61086091 33.51603325 122.25344298 33.46777344 126.89605713 C33.41750289 131.63517149 33.36184583 136.37422225 33.30664062 141.11328125 C33.199152 150.4088018 33.09818431 159.70437651 33 169 C22.11 169 11.22 169 0 169 C0 113.23 0 57.46 0 0 Z " fill="#161616" transform="translate(1928,738)"/>
<path d="M0 0 C6.04200086 5.10682015 10.23191874 10.95049192 14.01171875 17.86328125 C14.61113281 18.93835938 14.61113281 18.93835938 15.22265625 20.03515625 C21.46444183 32.51872741 22.72474504 48.29814982 20.01171875 61.86328125 C-10.34828125 61.86328125 -40.70828125 61.86328125 -71.98828125 61.86328125 C-69.14404891 73.24021062 -67.09237637 79.40795967 -57.89453125 85.85546875 C-50.08585443 89.98382658 -40.37858362 90.48594333 -31.96484375 87.953125 C-25.33001587 84.85487955 -22.00097649 80.88232411 -17.98828125 74.86328125 C-15.2219921 74.59651965 -12.68208494 74.51523936 -9.91796875 74.5703125 C-8.72362717 74.57667976 -8.72362717 74.57667976 -7.50515747 74.58317566 C-4.95752396 74.59999291 -2.41067636 74.63764946 0.13671875 74.67578125 C1.86196776 74.6908242 3.58722914 74.70451329 5.3125 74.71679688 C9.54587657 74.74990624 13.77866434 74.8017084 18.01171875 74.86328125 C12.82301414 91.55616473 3.55623096 103.57287474 -11.98828125 111.86328125 C-29.82575409 120.15978024 -51.04728203 119.79458914 -69.36328125 113.11328125 C-74.72033485 110.76448878 -79.36271041 107.40825655 -83.98828125 103.86328125 C-84.82746094 103.23679687 -85.66664062 102.6103125 -86.53125 101.96484375 C-98.11688121 92.05535314 -103.9915673 76.60687446 -105.98828125 61.86328125 C-107.25707529 41.57732995 -104.2301842 22.11235033 -90.55078125 6.30078125 C-66.46439616 -18.19663431 -27.59893059 -19.7341373 0 0 Z M-65.98828125 23.86328125 C-69.33603262 29.2161962 -70.94034586 33.57566889 -71.98828125 39.86328125 C-52.51828125 39.86328125 -33.04828125 39.86328125 -12.98828125 39.86328125 C-15.06201097 29.49463263 -17.08272831 24.40909113 -25.36328125 18.48828125 C-37.99587341 10.72735652 -56.18889195 11.86923706 -65.98828125 23.86328125 Z " fill="#161616" transform="translate(1330.98828125,791.13671875)"/>
<path d="M0 0 C11.45249124 9.36830625 18.35511096 23.38176027 20 38 C20.43600559 45.26467764 20.68345044 52.74411306 20 60 C18.14418034 61.85581966 15.50601694 61.12004366 13.03713989 61.12442017 C12.18046722 61.12082489 11.32379456 61.11722961 10.44116211 61.11352539 C9.54368759 61.11367142 8.64621307 61.11381744 7.72154236 61.1139679 C4.74011866 61.11326842 1.7587566 61.10547441 -1.22265625 61.09765625 C-3.28388942 61.09579219 -5.34512304 61.09436823 -7.40635681 61.09336853 C-12.8430401 61.08954237 -18.27969686 61.07971126 -23.71636963 61.06866455 C-29.25947714 61.05845253 -34.80258892 61.05387136 -40.34570312 61.04882812 C-51.23048043 61.03808908 -62.11523802 61.02101149 -73 61 C-72.39199486 63.07615651 -71.77582265 65.14992235 -71.15625 67.22265625 C-70.81400391 68.37773682 -70.47175781 69.53281738 -70.11914062 70.72290039 C-67.68580159 77.8482734 -64.05421946 81.7443878 -57.5625 85.5 C-49.70840392 89.07537209 -41.65873388 89.32282091 -33.29296875 87.3671875 C-26.98379588 84.98109487 -22.01254843 80.02509687 -19 74 C-7.12 74 4.76 74 17 74 C14.79238263 85.03808684 8.90405633 93.20766178 1 101 C0.15308594 101.86238281 0.15308594 101.86238281 -0.7109375 102.7421875 C-10.24952312 111.72241689 -24.09723522 116.19204699 -37 117 C-38.15822266 117.07927734 -38.15822266 117.07927734 -39.33984375 117.16015625 C-56.69825967 117.76052251 -73.17955603 113.01496152 -86.5 101.6875 C-101.57575406 86.89045736 -106.60826126 69.7843832 -107.00683594 49.27050781 C-106.95274811 31.30562181 -100.65491519 16.03685663 -88.98046875 2.69140625 C-65.73845376 -20.10621075 -24.70521147 -19.70728218 0 0 Z M-68 25 C-70.80037666 29.56631339 -71.94953677 33.74768383 -73 39 C-53.53 39 -34.06 39 -14 39 C-15.16104925 29.711606 -17.57722907 24.15452095 -24.92578125 18.3203125 C-39.92501467 8.77277785 -56.59386941 11.77973164 -68 25 Z " fill="#161616" transform="translate(2462,792)"/>
<path d="M0 0 C86.94474638 0 86.94474638 0 105.1875 16.625 C115.05949504 26.9502004 117.48897083 39.75733905 117.25 53.54296875 C116.36691149 65.754427 111.12247644 77.72092233 102 86 C86.13378602 98.08501345 68.94067259 99.32839017 49.75 99.125 C44.2225 99.08375 38.695 99.0425 33 99 C33 119.13 33 139.26 33 160 C22.11 160 11.22 160 0 160 C0 107.2 0 54.4 0 0 Z M33 27 C33 41.85 33 56.7 33 72 C38.259375 72.0825 43.51875 72.165 48.9375 72.25 C50.578396 72.28641602 52.21929199 72.32283203 53.90991211 72.36035156 C62.49443399 72.42544547 70.21460335 72.40007573 76.85864258 66.29101562 C82.32865473 60.51904053 83.49534344 54.60820968 83.3046875 46.8125 C82.60969671 40.39720038 80.30491895 35.68797195 75.3125 31.5625 C67.34034736 25.57058228 56.33549961 26.75550926 46.9375 26.875 C42.338125 26.91625 37.73875 26.9575 33 27 Z " fill="#161616" transform="translate(2133,747)"/>
<path d="M0 0 C13.17499688 11.13147033 21.42298564 26.79057029 22.92797852 44.01733398 C23.77622983 62.56180065 20.97137691 80.35581478 8.33203125 94.80078125 C6.80922657 96.38166969 5.26852764 97.94559807 3.70703125 99.48828125 C3.09214844 100.12507812 2.47726562 100.761875 1.84375 101.41796875 C-8.69385235 111.5719753 -23.89705393 116.676204 -38.29296875 117.48828125 C-39.50146484 117.56755859 -39.50146484 117.56755859 -40.734375 117.6484375 C-59.853863 118.30379998 -77.30703493 111.77386885 -91.41796875 98.92578125 C-104.71621448 84.9814669 -108.86643584 66.28719025 -108.56640625 47.5859375 C-107.88680041 29.79843209 -100.80730061 14.02810851 -87.80957031 1.81347656 C-64.2610496 -18.76304798 -24.4583154 -19.37530927 0 0 Z M-67.3828125 26.07421875 C-74.83632485 35.49399509 -76.04939442 47.67723736 -74.82421875 59.31640625 C-73.01320067 70.1292495 -68.44260088 77.67682405 -59.79296875 84.36328125 C-53.19044198 88.7016672 -45.99642867 89.30735707 -38.29296875 88.48828125 C-28.46105777 86.25436406 -20.82265942 80.86510201 -15.32421875 72.39453125 C-9.98097397 62.51762423 -9.72734887 50.01564013 -11.984375 39.1640625 C-15.27884159 29.28066273 -21.05049243 22.32517719 -30.29296875 17.48828125 C-44.07542346 11.99036216 -57.54381764 15.41964583 -67.3828125 26.07421875 Z " fill="#161616" transform="translate(1051.29296875,791.51171875)"/>
<path d="M0 0 C12.19834385 10.30630246 21.21139337 25.38456377 22.70703125 41.48828125 C23.95470629 60.82058423 21.55876726 79.66174606 8.33203125 94.80078125 C6.80922657 96.38166969 5.26852764 97.94559807 3.70703125 99.48828125 C3.09214844 100.12507812 2.47726563 100.761875 1.84375 101.41796875 C-8.69385235 111.5719753 -23.89705393 116.676204 -38.29296875 117.48828125 C-39.50146484 117.56755859 -39.50146484 117.56755859 -40.734375 117.6484375 C-59.853863 118.30379998 -77.30703493 111.77386885 -91.41796875 98.92578125 C-104.83222118 84.85982425 -108.78274239 66.19885763 -108.49609375 47.375 C-107.96453117 30.60808995 -101.2767794 14.87794159 -89.265625 3.109375 C-65.20373919 -18.10682129 -25.48995738 -20.19255208 0 0 Z M-66.29296875 24.48828125 C-74.0747207 35.48748833 -76.49276926 47.3168643 -74.66796875 60.67578125 C-72.82848051 69.90976858 -68.81314942 77.67019908 -61.29296875 83.48828125 C-53.15299534 88.48811511 -44.82596453 89.95776269 -35.41015625 87.83984375 C-26.25772286 84.85701727 -18.89954791 79.0209222 -14.29296875 70.48828125 C-9.80757726 60.92065182 -9.75622314 48.12826454 -12.41796875 37.98828125 C-15.85240659 28.59549311 -21.50666622 22.38302879 -30.08984375 17.45703125 C-42.06290044 11.93100508 -57.31971165 15.10714883 -66.29296875 24.48828125 Z " fill="#161616" transform="translate(2993.29296875,791.51171875)"/>
<path d="M0 0 C10.76122237 9.04847527 17.4779313 21.03614485 19.3515625 35 C20.40797119 51.59780577 16.99454376 65.49020039 6.1015625 78.25 C-4.30081727 89.22738569 -17.50643679 95.74120782 -32.69921875 96.30078125 C-49.89488411 96.49310119 -65.8785814 94.11384766 -79.03515625 81.7734375 C-92.00613616 67.51478162 -95.5194914 53.14158571 -94.82324219 34.44970703 C-93.87704947 21.18979402 -86.46735583 9.93343626 -77.0234375 1 C-55.58975733 -17.04941488 -22.02637097 -16.63348368 0 0 Z " fill="#161616" transform="translate(1665.6484375,155)"/>
<path d="M0 0 C10.68857893 9.09973612 17.50134584 19.92394725 19.3515625 33.96484375 C20.41516394 50.98246678 17.50553623 64.99767907 6.3203125 78.3984375 C-3.0881368 88.50570278 -15.9187406 95.278292 -29.80908203 96.09130859 C-47.47606697 96.66074334 -63.07438431 94.69015763 -76.9609375 82.65234375 C-83.91590096 75.98763559 -89.43601241 69.11783382 -92.6484375 59.96484375 C-92.87402344 59.32675781 -93.09960938 58.68867188 -93.33203125 58.03125 C-97.16600463 44.46691661 -95.43131671 28.34897384 -89.10546875 15.9375 C-81.2341738 2.80666701 -70.13014557 -5.68323242 -55.5703125 -10.30859375 C-36.46014846 -15.06058641 -15.74853283 -12.10174868 0 0 Z " fill="#161616" transform="translate(2751.6484375,155.03515625)"/>
<path d="M0 0 C10.80847398 9.23223819 16.43816731 19.87407738 18.375 33.9921875 C18.46140024 36.8290666 18.5017119 39.64003341 18.48852539 42.47607422 C18.48867142 43.30600388 18.48881744 44.13593353 18.4889679 44.99101257 C18.48827453 47.71799385 18.48050923 50.44490574 18.47265625 53.171875 C18.47079002 55.06902021 18.46936709 56.9661659 18.46836853 58.86331177 C18.46455948 63.84453676 18.45474301 68.82573237 18.44366455 73.8069458 C18.43341572 78.89473066 18.42886348 83.98252028 18.42382812 89.0703125 C18.41311925 99.04428579 18.39553555 109.0182296 18.375 118.9921875 C7.485 118.9921875 -3.405 118.9921875 -14.625 118.9921875 C-14.6343457 116.68694092 -14.64369141 114.38169434 -14.65332031 112.0065918 C-14.68722143 104.35500469 -14.74284266 96.70368357 -14.80890274 89.05230999 C-14.84826345 84.41726539 -14.88050751 79.78240752 -14.89599609 75.1472168 C-14.9112383 70.66657453 -14.94581631 66.18644605 -14.99330902 61.70603371 C-15.00804532 60.00423483 -15.01603652 58.30236257 -15.01688385 56.60050011 C-15.02761727 45.84345959 -15.23768295 35.62438399 -21.875 26.5546875 C-28.3145982 20.55415282 -35.50347197 18.63721199 -44.16015625 18.78125 C-51.10538553 19.37561194 -57.0482258 21.42329674 -62.15625 26.2421875 C-67.25333271 32.31530733 -68.76980729 38.92456129 -68.83032227 46.67651367 C-68.84022186 47.4572374 -68.85012146 48.23796112 -68.86032104 49.04234314 C-68.89191177 51.62324998 -68.91668388 54.20417523 -68.94140625 56.78515625 C-68.96197787 58.57449319 -68.9829744 60.3638253 -69.00437927 62.15315247 C-69.05957842 66.86310916 -69.10899723 71.57310956 -69.15722656 76.28314209 C-69.20745731 81.08919159 -69.26313517 85.89517762 -69.31835938 90.70117188 C-69.4259146 100.13145821 -69.5268621 109.56179845 -69.625 118.9921875 C-80.515 118.9921875 -91.405 118.9921875 -102.625 118.9921875 C-102.625 77.0821875 -102.625 35.1721875 -102.625 -8.0078125 C-91.735 -8.0078125 -80.845 -8.0078125 -69.625 -8.0078125 C-69.13 -2.0678125 -69.13 -2.0678125 -68.625 3.9921875 C-67.366875 2.9403125 -66.10875 1.8884375 -64.8125 0.8046875 C-46.34858335 -13.49182477 -18.80925931 -14.38684417 0 0 Z " fill="#161616" transform="translate(3141.625,788.0078125)"/>
<path d="M0 0 C8.01342853 6.404729 13.10845386 15.37112462 14.89453125 25.4765625 C14.89453125 27.7865625 14.89453125 30.0965625 14.89453125 32.4765625 C4.66453125 32.4765625 -5.56546875 32.4765625 -16.10546875 32.4765625 C-17.42546875 29.5065625 -18.74546875 26.5365625 -20.10546875 23.4765625 C-25.18048383 18.1759912 -30.33359597 16.46135622 -37.54296875 16.1640625 C-42.72652712 16.28811347 -47.73934321 17.46342539 -51.78125 20.90234375 C-53.80507781 23.30825115 -53.91987613 25.38335222 -54.10546875 28.4765625 C-53.27121441 31.38525465 -52.67637154 33.0350261 -50.25878906 34.90478516 C-42.10394158 38.80068562 -33.5620928 41.08519536 -24.85693359 43.37792969 C-11.95789145 46.80290235 3.39556304 51.10548507 11.08203125 62.8515625 C11.57058594 63.58117187 12.05914063 64.31078125 12.5625 65.0625 C17.13853002 73.35571569 17.42781399 84.16919486 15.20703125 93.3046875 C14.27189612 95.53342622 13.21698875 97.45568214 11.89453125 99.4765625 C11.48203125 100.15847656 11.06953125 100.84039063 10.64453125 101.54296875 C3.91934763 111.61163855 -6.72900844 116.66683342 -18.26953125 119.16015625 C-36.65490514 122.34139636 -56.16823125 120.54531706 -71.79296875 109.7265625 C-83.84927688 100.53107325 -87.57159151 92.67982595 -90.10546875 77.4765625 C-78.88546875 77.4765625 -67.66546875 77.4765625 -56.10546875 77.4765625 C-55.11546875 80.1165625 -54.12546875 82.7565625 -53.10546875 85.4765625 C-48.01408076 90.93162106 -41.5688488 93.50961481 -34.10546875 93.8515625 C-29.49482521 93.67600693 -25.3791205 92.10341612 -21.10546875 90.4765625 C-20.11546875 90.1465625 -19.12546875 89.8165625 -18.10546875 89.4765625 C-16.10891979 85.18398224 -15.63033617 82.00030242 -17.10546875 77.4765625 C-25.86287784 69.35803913 -40.16571309 67.2015754 -51.40161133 64.06323242 C-63.74211994 60.56998477 -75.54297239 56.64994425 -83.10546875 45.5390625 C-87.71684309 37.1962227 -88.36895537 27.52170598 -85.91796875 18.4140625 C-82.60248578 8.52872849 -76.57684472 1.2728408 -67.53515625 -4.03125 C-46.50781584 -14.26905131 -19.24561098 -13.9253957 0 0 Z " fill="#161616" transform="translate(2788.10546875,788.5234375)"/>
<path d="M0 0 C9.64343395 8.24287471 15.45655774 17.77690402 19.14453125 29.89453125 C19.14453125 30.88453125 19.14453125 31.87453125 19.14453125 32.89453125 C7.26453125 32.89453125 -4.61546875 32.89453125 -16.85546875 32.89453125 C-18.17546875 30.25453125 -19.49546875 27.61453125 -20.85546875 24.89453125 C-26.30371773 19.07557667 -32.88441168 16.88473407 -40.73046875 16.58203125 C-48.29171086 16.77708605 -54.70465859 18.809638 -60.2890625 24.03125 C-67.17449585 32.22165327 -69.23415138 42.42426896 -69.10546875 52.83203125 C-69.09870117 53.62399902 -69.09193359 54.4159668 -69.08496094 55.23193359 C-68.92528563 64.24244848 -67.18406645 70.99822217 -62.85546875 78.89453125 C-62.56671875 79.58933594 -62.27796875 80.28414062 -61.98046875 81 C-60.579274 83.35965088 -59.3486878 83.8353818 -56.85546875 84.89453125 C-55.78296875 85.59578125 -54.71046875 86.29703125 -53.60546875 87.01953125 C-46.5774293 90.50722873 -37.1798487 90.13320029 -29.7734375 88.01171875 C-22.42346983 84.68384733 -19.41428487 80.01216349 -15.85546875 72.89453125 C-4.30546875 72.89453125 7.24453125 72.89453125 19.14453125 72.89453125 C17.04333496 87.60290529 9.02412443 98.34160192 -2.23046875 107.70703125 C-16.72857417 118.29413573 -34.79020196 120.37145577 -52.23046875 118.20703125 C-62.8630984 116.4012521 -72.31101514 112.46216098 -80.85546875 105.89453125 C-81.51933594 105.41757812 -82.18320313 104.940625 -82.8671875 104.44921875 C-94.92354818 95.02204478 -101.45626223 79.71611279 -103.46484375 64.85546875 C-105.42084095 45.02165712 -102.51081882 25.6237377 -90.078125 9.49609375 C-68.11341059 -16.21304474 -27.16139378 -20.02734781 0 0 Z " fill="#161616" transform="translate(2599.85546875,790.10546875)"/>
<path d="M0 0 C11.88 0 23.76 0 36 0 C36.825 2.5471875 37.65 5.094375 38.5 7.71875 C45.19338413 28.35920276 51.95593992 48.97564321 58.8125 69.5625 C59.16610596 70.62581543 59.51971191 71.68913086 59.8840332 72.78466797 C60.88580704 75.79582597 61.88974864 78.80625108 62.89453125 81.81640625 C63.34515678 83.17125877 63.34515678 83.17125877 63.80488586 84.55348206 C64.21821419 85.78879921 64.21821419 85.78879921 64.63989258 87.04907227 C64.87968338 87.76764908 65.11947418 88.48622589 65.36653137 89.22657776 C65.98500054 91.07023439 65.98500054 91.07023439 67 93 C67.24088348 92.27734955 67.48176697 91.5546991 67.72994995 90.81015015 C77.81996663 60.5401001 87.90998332 30.27005005 98 0 C109.55 0 121.1 0 133 0 C132.28904913 4.2657052 131.64252817 7.36804572 130.16845703 11.2878418 C129.78872742 12.30581345 129.4089978 13.3237851 129.01776123 14.37260437 C128.60197815 15.47038712 128.18619507 16.56816986 127.7578125 17.69921875 C127.10416718 19.44492912 127.10416718 19.44492912 126.43731689 21.22590637 C125.49585198 23.73814241 124.55247825 26.24955563 123.60565186 28.75976562 C122.11411283 32.71415943 120.62991975 36.67128373 119.14697266 40.62890625 C117.36488877 45.38347186 115.5811276 50.13740093 113.79508781 54.89048195 C109.37501537 66.65412475 104.98577299 78.42917484 100.60150146 90.20620728 C99.39947183 93.43428043 98.19623987 96.66190298 96.99267578 99.8894043 C96.25290886 101.87417844 95.51316167 103.85895993 94.7734375 105.84375 C94.44829163 106.71530228 94.12314575 107.58685455 93.78814697 108.4848175 C91.49341275 114.64558601 89.24689463 120.82103977 87 127 C73.8 127 60.6 127 47 127 C41.25869713 113.22087311 41.25869713 113.22087311 38.8203125 106.6015625 C38.53454849 105.83213821 38.24878448 105.06271393 37.95436096 104.26997375 C37.00888452 101.72251565 36.06685663 99.17379844 35.125 96.625 C34.44656506 94.79362906 33.76792916 92.96233256 33.08911133 91.13110352 C31.978167 88.13380175 30.8675191 85.13639202 29.75782776 82.1386261 C26.75833166 74.0373793 23.74455091 65.94152147 20.72719574 57.8469162 C19.15786276 53.63567336 17.59046685 49.42370922 16.02317047 45.21170807 C14.73154254 41.74086715 13.43889439 38.27041373 12.14385986 34.80084229 C10.91139959 31.49866373 9.68205326 28.19534133 8.45487785 24.8911953 C7.78469434 23.08912334 7.11134373 21.28823019 6.43788147 19.48738098 C6.02871994 18.38416 5.61955841 17.28093903 5.19799805 16.14428711 C4.84432663 15.19476669 4.49065521 14.24524628 4.12626648 13.26695251 C2.61683708 8.88856227 1.33078615 4.43595384 0 0 Z " fill="#161616" transform="translate(1083,780)"/>
<path d="M0 0 C10.89 0 21.78 0 33 0 C33 10.23 33 20.46 33 31 C42.57 31 52.14 31 62 31 C62 39.91 62 48.82 62 58 C52.43 58 42.86 58 33 58 C33.06764655 66.10359017 33.13807224 74.20630111 33.2355423 82.30944824 C33.28013056 86.08323121 33.3195805 89.85690501 33.34643555 93.63085938 C33.37252177 97.2685524 33.41296081 100.90583311 33.46318626 104.54327011 C33.47981923 105.92821991 33.49135572 107.31324098 33.49761391 108.69827652 C33.50729302 110.64418174 33.53708156 112.589955 33.56762695 114.53564453 C33.58428154 116.19444138 33.58428154 116.19444138 33.60127258 117.88674927 C34.06089848 121.47549335 35.15143523 123.90554265 37 127 C41.43293578 129.89878401 47.17079718 129.44994566 52.3125 129.625 C57.1078125 129.810625 57.1078125 129.810625 62 130 C62 139.24 62 148.48 62 158 C55.93625 158.061875 55.93625 158.061875 49.75 158.125 C48.50186523 158.14320801 47.25373047 158.16141602 45.96777344 158.18017578 C32.16573209 158.24738648 19.23412549 156.78450345 8.7890625 147.046875 C-0.36190607 136.57720791 -0.29124561 123.36985908 -0.1953125 110.24609375 C-0.19157551 108.734382 -0.18873179 107.22266781 -0.18673706 105.71095276 C-0.17915453 101.76049946 -0.15955326 97.81019668 -0.1373291 93.85980225 C-0.11675378 89.81736282 -0.10771052 85.77489873 -0.09765625 81.73242188 C-0.07630145 73.82153831 -0.04116418 65.91080531 0 58 C-4.95 58 -9.9 58 -15 58 C-15 49.09 -15 40.18 -15 31 C-10.05 31 -5.1 31 0 31 C0 20.77 0 10.54 0 0 Z " fill="#161616" transform="translate(1844,749)"/>
<path d="M0 0 C0 11.55 0 23.1 0 35 C-4.1765625 35.1546875 -4.1765625 35.1546875 -8.4375 35.3125 C-17.15838346 35.74316091 -25.65825516 36.29586974 -32 43 C-38.89188803 53.16914948 -38.31899982 65.93772711 -38.4140625 77.73046875 C-38.43281584 79.21691411 -38.4523922 80.70334928 -38.4727478 82.18977356 C-38.52363581 86.06444236 -38.56349054 89.93914552 -38.60089111 93.81396484 C-38.64831855 98.48322612 -38.70972701 103.15232279 -38.76873779 107.82144928 C-38.85642043 114.88089813 -38.92656236 121.94032397 -39 129 C-49.89 129 -60.78 129 -72 129 C-72 87.09 -72 45.18 -72 2 C-61.11 2 -50.22 2 -39 2 C-38.505 9.92 -38.505 9.92 -38 18 C-36.68 16.618125 -35.36 15.23625 -34 13.8125 C-24.26980367 4.12791396 -13.7536431 0 0 0 Z " fill="#161616" transform="translate(2343,778)"/>
<path d="M0 0 C10.89 0 21.78 0 33 0 C33 41.91 33 83.82 33 127 C22.11 127 11.22 127 0 127 C0 85.09 0 43.18 0 0 Z " fill="#161616" transform="translate(2830,780)"/>
<path d="M0 0 C10.89 0 21.78 0 33 0 C33 41.91 33 83.82 33 127 C22.11 127 11.22 127 0 127 C0 85.09 0 43.18 0 0 Z " fill="#161616" transform="translate(2642,780)"/>
<path d="M0 0 C10.89 0 21.78 0 33 0 C33 41.91 33 83.82 33 127 C22.11 127 11.22 127 0 127 C0 85.09 0 43.18 0 0 Z " fill="#161616" transform="translate(1776,780)"/>
<path d="M0 0 C3.71468292 2.75442475 6.24436889 5.84248168 7.72265625 10.27734375 C8.668647 22.88448972 8.668647 22.88448972 4.72265625 28.27734375 C-1.70504137 34.42557626 -6.71549086 35.6976742 -15.40234375 35.52734375 C-21.5987673 34.98852431 -25.36763301 31.92672949 -29.27734375 27.27734375 C-32.04793856 22.21384288 -33.08316937 17.9405071 -32.27734375 12.27734375 C-30.53522705 6.66385661 -27.88589252 2.83023973 -23.27734375 -0.72265625 C-16.12505139 -4.38196862 -6.91102271 -3.98767429 0 0 Z " fill="#161616" transform="translate(2858.27734375,730.72265625)"/>
<path d="M0 0 C4.33460571 2.49217577 7.37862946 5.88225892 9.625 10.375 C10.56239328 22.36134035 10.56239328 22.36134035 7.9375 28 C3.39801132 32.66217756 -0.6423565 35.98817154 -7.27734375 36.67578125 C-14.22810713 36.70261817 -19.06408844 36.62383197 -24.25 31.53515625 C-29.15903379 26.2203354 -30.73256301 22.8330874 -30.58203125 15.45703125 C-29.9580897 9.18229829 -26.91701345 5.49334454 -22.2890625 1.63671875 C-15.65555231 -2.73598287 -7.24543849 -3.29963043 0 0 Z " fill="#161616" transform="translate(1802.375,729.625)"/>
<path d="M0 0 C4.74361725 2.76062971 7.53545635 6.1959127 10 11.125 C11.14625052 17.08550272 10.67803462 22.34414753 7.875 27.75 C3.7016365 32.61892408 -0.51143738 35.87833874 -6.98828125 36.7109375 C-14.14652896 36.81453009 -19.49496105 35.89870885 -24.90625 30.984375 C-28.46012233 27.0585858 -30.33684312 23.29400097 -30.40625 17.984375 C-29.99094217 11.04873431 -28.12073339 6.90952313 -22.9375 2.125 C-16.08263677 -2.55637001 -7.64903168 -3.48342999 0 0 Z " fill="#161616" transform="translate(2668.375,729.625)"/>
</svg>
